<?xml version="1.0" encoding="utf-8"?>
<!-- Generator: Adobe Illustrator 15.1.0, SVG Export Plug-In . SVG Version: 6.00 Build 0)  -->
<!DOCTYPE svg PUBLIC "-//W3C//DTD SVG 1.1//EN" "http://www.w3.org/Graphics/SVG/1.1/DTD/svg11.dtd">
<svg version="1.1" id="Calque_1" xmlns="http://www.w3.org/2000/svg" xmlns:xlink="http://www.w3.org/1999/xlink" x="0px" y="0px"
	 width="45.536px" height="45.536px" viewBox="0 0 45.536 45.536" enable-background="new 0 0 45.536 45.536" xml:space="preserve" fill="#ff8000">
<g>
	<g>
		<polygon points="22.274,0.563 22.838,1.128 44.409,22.698 44.972,23.261 45.536,22.698 22.838,0 		"/>
		<polygon points="22.697,45.536 23.261,44.973 22.697,44.409 1.127,22.839 0.563,22.274 0,22.839 		"/>
	</g>
	<path id="arrow-27-icon" fill="#ff8000" d="M16.392,22.274c0,3.352,2.718,6.068,6.069,6.068s6.069-2.717,6.069-6.068
		c0-3.351-2.718-6.069-6.069-6.069S16.392,18.923,16.392,22.274z M26.407,23.091l-1.052,1.056l-2.895-2.88l-2.895,2.88l-1.051-1.056
		l3.945-3.928L26.407,23.091z"/>
</g>
</svg>
