<?xml version="1.0" encoding="utf-8"?>
<!-- Generator: Adobe Illustrator 15.1.0, SVG Export Plug-In . SVG Version: 6.00 Build 0)  -->
<!DOCTYPE svg PUBLIC "-//W3C//DTD SVG 1.1//EN" "http://www.w3.org/Graphics/SVG/1.1/DTD/svg11.dtd">
<svg version="1.1" id="Calque_1" xmlns="http://www.w3.org/2000/svg" xmlns:xlink="http://www.w3.org/1999/xlink" x="0px" y="0px"
	 width="117.849px" height="117.849px" viewBox="0 0 117.849 117.849" enable-background="new 0 0 117.849 117.849"
	 xml:space="preserve">
<g>
	<path fill="#FFFFFF" d="M58.925,117.849L0,58.926L58.925,0l58.924,58.926L58.925,117.849z"/>
	<path fill="#010101" d="M58.925,117.849L0,58.926L58.925,0l58.924,58.926L58.925,117.849z M3.022,58.926l55.903,55.901
		l55.899-55.901L58.925,3.022L3.022,58.926z"/>
	<path id="facebook-icon" fill="#020202" d="M55.096,53.661h-3.222v5.261h3.222v15.453h6.197v-15.52h4.322l0.461-5.194h-4.784
		c0,0,0-1.939,0-2.958c0-1.225,0.247-1.709,1.431-1.709c0.954,0,3.353,0,3.353,0v-5.393c0,0-3.534,0-4.289,0
		c-4.612,0-6.691,2.03-6.691,5.918C55.096,52.905,55.096,53.661,55.096,53.661z"/>
</g>
</svg>
