<?xml version="1.0" encoding="utf-8"?>
<!-- Generator: Adobe Illustrator 15.1.0, SVG Export Plug-In . SVG Version: 6.00 Build 0)  -->
<!DOCTYPE svg PUBLIC "-//W3C//DTD SVG 1.1//EN" "http://www.w3.org/Graphics/SVG/1.1/DTD/svg11.dtd">
<svg version="1.1" id="Calque_1" xmlns="http://www.w3.org/2000/svg" xmlns:xlink="http://www.w3.org/1999/xlink" x="0px" y="0px"
	 width="62px" height="62px" viewBox="0 0 62 62" enable-background="new 0 0 62 62" xml:space="preserve">
<g>
	<polygon points="61.729,31.262 60.964,30.498 60.199,31.262 30.959,60.502 30.195,61.266 30.959,62.029 	"/>
	<polygon points="30.769,1.831 31.533,1.066 30.769,0.302 0,31.07 0.765,31.834 1.528,31.07 	"/>
</g>
<rect x="26.832" y="27.599" transform="matrix(0.7265 0.6872 -0.6872 0.7265 26.317 -10.8953)" width="0.025" height="0.024"/>
<rect x="26.832" y="27.012" transform="matrix(0.7167 0.6974 -0.6974 0.7167 26.4499 -11.0651)" fill="#FFFFFF" width="0.025" height="0.024"/>
<polygon fill="#FFFFFF" points="30.44,31.188 30.458,31.206 30.458,31.205 "/>
<rect x="34.314" y="27.306" transform="matrix(0.6968 -0.7173 0.7173 0.6968 -9.1863 32.9042)" width="0.024" height="0.024"/>
<rect x="34.608" y="27.597" transform="matrix(0.7355 0.6775 -0.6775 0.7355 27.8606 -16.1531)" fill="#FFFFFF" width="0.025" height="0.025"/>
<rect x="28.584" y="17.376" transform="matrix(-0.7071 0.7071 -0.7071 -0.7071 66.3122 11.6166)" width="4.332" height="4.332"/>
<polygon points="26.845,20.385 23.781,23.448 26.831,26.498 26.845,26.511 29.908,23.448 "/>
<rect x="32.477" y="21.273" transform="matrix(-0.7072 0.7071 -0.7071 -0.7072 75.6931 15.5284)" width="4.309" height="4.331"/>
<rect x="24.681" y="29.021" transform="matrix(-0.7071 0.7071 -0.7071 -0.7071 67.8849 34.2566)" width="4.332" height="4.333"/>
<rect x="32.463" y="29.043" transform="matrix(-0.7072 0.7071 -0.7071 -0.7072 81.1749 28.7736)" width="4.332" height="4.308"/>
<rect x="24.678" y="36.833" transform="matrix(-0.7072 0.707 -0.707 -0.7072 73.4004 47.5995)" width="4.332" height="4.331"/>
<rect x="32.475" y="36.825" transform="matrix(-0.707 0.7072 -0.7072 -0.707 86.6867 42.0675)" width="4.307" height="4.333"/>
<rect x="28.579" y="25.164" transform="matrix(-0.7072 0.7071 -0.7071 -0.7072 71.7813 24.9054)" width="4.308" height="4.308"/>
<rect x="28.587" y="32.929" transform="matrix(-0.7069 0.7073 -0.7073 -0.7069 77.3158 38.1544)" width="4.333" height="4.332"/>
<rect x="28.588" y="40.712" transform="matrix(-0.7071 0.7071 -0.7071 -0.7071 82.7991 51.4594)" width="4.308" height="4.333"/>
</svg>
