<?xml version="1.0" encoding="utf-8"?>
<!-- Generator: Adobe Illustrator 15.1.0, SVG Export Plug-In . SVG Version: 6.00 Build 0)  -->
<!DOCTYPE svg PUBLIC "-//W3C//DTD SVG 1.1//EN" "http://www.w3.org/Graphics/SVG/1.1/DTD/svg11.dtd">
<svg version="1.1" id="Calque_1" xmlns="http://www.w3.org/2000/svg" xmlns:xlink="http://www.w3.org/1999/xlink" x="0px" y="0px"
	 width="27.064px" height="27.064px" viewBox="0 0 27.064 27.064" enable-background="new 0 0 27.064 27.064" xml:space="preserve">
<path fill="#FFFFFF" d="M13.532,27.065L0,13.533L13.532,0l13.532,13.533L13.532,27.065z"/>
<path d="M13.532,27.065L0,13.533L13.532,0l13.532,13.533L13.532,27.065z M0.695,13.533l12.838,12.838l12.839-12.838L13.532,0.694
	L0.695,13.533z"/>
<rect x="12.363" y="6.578" transform="matrix(0.7069 -0.7073 0.7073 0.7069 -1.4972 11.8036)" stroke="#FFFFFF" stroke-width="0.25" stroke-miterlimit="10" width="2.26" height="2.26"/>
<rect x="14.288" y="8.503" transform="matrix(0.7073 -0.7069 0.7069 0.7073 -2.2993 13.7136)" stroke="#FFFFFF" stroke-width="0.25" stroke-miterlimit="10" width="2.248" height="2.261"/>
<rect x="10.436" y="12.331" transform="matrix(0.7071 -0.7071 0.7071 0.7071 -6.131 12.1209)" stroke="#FFFFFF" stroke-width="0.25" stroke-miterlimit="10" width="2.259" height="2.261"/>
<rect x="10.435" y="8.507" transform="matrix(0.7071 -0.7071 0.7071 0.7071 -3.427 11.0004)" stroke="#FFFFFF" stroke-width="0.25" stroke-miterlimit="10" width="2.261" height="2.26"/>
<polygon stroke="#FFFFFF" stroke-width="0.25" stroke-miterlimit="10" points="13.341,13.461 13.351,13.471 13.351,13.47 "/>
<rect x="10.435" y="16.191" transform="matrix(0.7071 -0.7071 0.7071 0.7071 -8.8605 13.251)" stroke="#FFFFFF" stroke-width="0.25" stroke-miterlimit="10" width="2.261" height="2.261"/>
<rect x="14.287" y="16.186" transform="matrix(0.7069 -0.7073 0.7073 0.7069 -7.7309 15.9764)" stroke="#FFFFFF" stroke-width="0.25" stroke-miterlimit="10" width="2.249" height="2.261"/>
<rect x="12.362" y="10.424" transform="matrix(0.7073 -0.7069 0.7069 0.7073 -4.2172 12.9135)" stroke="#FFFFFF" stroke-width="0.25" stroke-miterlimit="10" width="2.249" height="2.25"/>
<rect x="15.256" y="11.543" transform="matrix(0.7071 0.7071 -0.7071 0.7071 12.6362 -7.4093)" stroke="#FFFFFF" stroke-width="0.25" stroke-miterlimit="10" width="0.012" height="0.012"/>
<rect x="14.281" y="12.34" transform="matrix(0.7069 -0.7073 0.7073 0.7069 -5.0071 14.8472)" stroke="#FFFFFF" stroke-width="0.25" stroke-miterlimit="10" width="2.26" height="2.25"/>
<rect x="12.364" y="14.261" transform="matrix(0.7067 -0.7075 0.7075 0.7067 -6.9317 14.0625)" stroke="#FFFFFF" stroke-width="0.25" stroke-miterlimit="10" width="2.261" height="2.26"/>
<rect x="12.367" y="18.107" transform="matrix(0.7069 -0.7073 0.7073 0.7069 -9.6527 15.1816)" stroke="#FFFFFF" stroke-width="0.25" stroke-miterlimit="10" width="2.249" height="2.26"/>
</svg>
