<?xml version="1.0" encoding="utf-8"?>
<!-- Generator: Adobe Illustrator 15.1.0, SVG Export Plug-In . SVG Version: 6.00 Build 0)  -->
<!DOCTYPE svg PUBLIC "-//W3C//DTD SVG 1.1//EN" "http://www.w3.org/Graphics/SVG/1.1/DTD/svg11.dtd">
<svg version="1.1" id="Calque_1" xmlns="http://www.w3.org/2000/svg" xmlns:xlink="http://www.w3.org/1999/xlink" x="0px" y="0px"
	 width="783.543px" height="131.799px" viewBox="0 0 783.543 131.799" enable-background="new 0 0 783.543 131.799"
	 xml:space="preserve" fill="#FFFFFF">
<path d="M221.988,63.84c-0.371-0.381-0.803-0.677-1.292-0.885c-0.488-0.209-1.004-0.313-1.544-0.313
	c-0.531,0-1.038,0.102-1.529,0.306l-0.029-0.03l2.537-3.592l-0.6-0.449l-3.711,5.277c-0.285,0.409-0.496,0.814-0.635,1.216
	c-0.136,0.402-0.205,0.844-0.205,1.321c0,0.551,0.107,1.074,0.322,1.567c0.213,0.493,0.507,0.925,0.884,1.291
	c0.379,0.367,0.813,0.651,1.31,0.856c0.493,0.204,1.015,0.306,1.564,0.306c0.57,0,1.111-0.105,1.621-0.313
	c0.508-0.209,0.957-0.521,1.344-0.94c0.357-0.387,0.637-0.819,0.842-1.299c0.203-0.479,0.306-0.968,0.306-1.468
	c0-0.54-0.105-1.055-0.313-1.543C222.65,64.658,222.359,64.223,221.988,63.84z M222.18,67.976c-0.175,0.407-0.416,0.764-0.727,1.07
	c-0.311,0.305-0.672,0.545-1.084,0.718c-0.414,0.173-0.844,0.259-1.293,0.259c-0.457,0-0.893-0.086-1.299-0.259
	s-0.768-0.416-1.078-0.727s-0.551-0.667-0.727-1.07c-0.172-0.402-0.26-0.832-0.26-1.29c0-0.449,0.088-0.876,0.26-1.285
	c0.176-0.406,0.416-0.767,0.727-1.077s0.674-0.552,1.085-0.726c0.413-0.173,0.843-0.259,1.292-0.259s0.879,0.086,1.293,0.259
	c0.412,0.174,0.773,0.415,1.084,0.726s0.552,0.671,0.727,1.077c0.172,0.409,0.258,0.836,0.258,1.285
	C222.438,67.135,222.352,67.567,222.18,67.976z"/>
<path d="M741.788,63.25c-0.601-0.616-1.3-1.095-2.091-1.432c-0.79-0.338-1.625-0.507-2.498-0.507c-0.859,0-1.68,0.164-2.475,0.494
	l-0.048-0.049l4.105-5.812l-0.97-0.728l-6.006,8.54c-0.461,0.662-0.803,1.317-1.027,1.967c-0.219,0.651-0.331,1.365-0.331,2.139
	c0,0.891,0.174,1.738,0.521,2.536c0.345,0.798,0.819,1.496,1.431,2.089c0.612,0.594,1.316,1.054,2.119,1.386
	c0.797,0.33,1.641,0.495,2.531,0.495c0.922,0,1.798-0.171,2.623-0.508c0.821-0.338,1.549-0.844,2.174-1.521
	c0.578-0.626,1.031-1.326,1.362-2.102c0.329-0.774,0.495-1.566,0.495-2.375c0-0.874-0.171-1.707-0.508-2.497
	C742.859,64.574,742.389,63.869,741.788,63.25z M742.098,69.942c-0.283,0.659-0.674,1.235-1.176,1.731
	c-0.502,0.494-1.087,0.883-1.754,1.162c-0.67,0.279-1.365,0.419-2.092,0.419c-0.74,0-1.445-0.14-2.102-0.419
	c-0.658-0.279-1.242-0.674-1.745-1.176s-0.892-1.079-1.176-1.732c-0.278-0.65-0.421-1.346-0.421-2.087
	c0-0.728,0.143-1.417,0.421-2.079c0.284-0.658,0.673-1.241,1.176-1.744c0.503-0.502,1.091-0.893,1.755-1.174
	c0.669-0.279,1.364-0.418,2.092-0.418c0.727,0,1.422,0.139,2.092,0.418c0.667,0.281,1.252,0.672,1.754,1.174
	c0.502,0.503,0.893,1.086,1.176,1.744c0.278,0.662,0.417,1.352,0.417,2.079C742.515,68.582,742.376,69.282,742.098,69.942z"/>
<polygon points="563.268,19.314 564.414,20.46 608.25,64.298 609.396,65.443 610.543,64.298 564.414,18.169 "/>
<polygon points="520.291,64.583 519.145,63.438 518,64.583 564.127,110.712 565.273,109.566 564.127,108.421 "/>
<polygon points="218.268,19.314 219.414,20.46 263.25,64.298 264.396,65.443 265.543,64.298 219.414,18.169 "/>
<polygon points="175.291,64.583 174.145,63.438 173,64.583 219.127,110.712 220.273,109.566 219.127,108.421 "/>
<polygon points="45.268,19.314 46.414,20.46 90.25,64.298 91.396,65.443 92.543,64.298 46.414,18.169 "/>
<polygon points="2.291,64.583 1.145,63.438 0,64.583 46.127,110.712 47.273,109.566 46.127,108.421 "/>
<polygon points="737.414,18.169 736.268,19.314 737.414,20.46 781.25,64.298 782.396,65.443 783.543,64.298 "/>
<polygon points="693.291,64.583 692.145,63.438 691,64.583 737.127,110.712 738.273,109.566 737.127,108.421 "/>
<path d="M384.023,49.344c0,3.195,2.6,5.796,5.797,5.796c0.104,0,0.209-0.004,0.313-0.009l-8.225,11.698
	c-0.842,1.202-1.466,2.397-1.871,3.584c-0.406,1.188-0.609,2.487-0.609,3.899c0,1.624,0.316,3.164,0.947,4.623
	c0.631,1.457,1.503,2.728,2.614,3.81c1.113,1.081,2.397,1.923,3.856,2.524c1.457,0.602,2.998,0.902,4.62,0.902
	c1.684,0,3.276-0.31,4.78-0.925c1.503-0.615,2.824-1.541,3.967-2.773c1.053-1.141,1.879-2.419,2.48-3.833
	c0.601-1.412,0.902-2.854,0.902-4.328c0-1.593-0.309-3.111-0.926-4.553c-0.615-1.443-1.473-2.729-2.568-3.855
	c-1.099-1.127-2.367-1.998-3.812-2.615c-1.442-0.615-2.961-0.924-4.554-0.924c-1.563,0-3.064,0.301-4.508,0.9l-0.09-0.088
	l7.385-10.456c0.686-0.951,1.091-2.118,1.091-3.378c0-3.195-2.6-5.795-5.794-5.795C386.623,43.549,384.023,46.148,384.023,49.344z
	 M387.701,65.16c1.217-0.511,2.486-0.767,3.811-0.767c1.322,0,2.592,0.256,3.81,0.767c1.218,0.512,2.283,1.226,3.201,2.142
	c0.917,0.918,1.63,1.977,2.142,3.179c0.512,1.203,0.767,2.466,0.767,3.787c0,1.354-0.255,2.631-0.767,3.833
	s-1.225,2.255-2.142,3.157c-0.918,0.9-1.983,1.607-3.201,2.118c-1.218,0.512-2.487,0.767-3.81,0.767
	c-1.354,0-2.631-0.255-3.833-0.767c-1.202-0.511-2.263-1.224-3.177-2.142c-0.919-0.917-1.633-1.968-2.143-3.157
	c-0.512-1.187-0.768-2.456-0.768-3.81c0-1.321,0.256-2.584,0.768-3.787c0.51-1.202,1.224-2.261,2.143-3.179
	C385.416,66.386,386.482,65.672,387.701,65.16z M393.408,49.344c0,0.722-0.214,1.392-0.582,1.955l-0.149,0.214
	c-0.657,0.861-1.692,1.42-2.856,1.42c-1.98,0-3.59-1.609-3.59-3.589c0-1.979,1.609-3.588,3.59-3.588
	C391.798,45.756,393.408,47.365,393.408,49.344z"/>
<path d="M345.164,64.436l46.276,46.276l46.276-46.276L391.44,18.159L345.164,64.436z M391.44,108.338l-43.902-43.902l43.902-43.904
	l43.903,43.904L391.44,108.338z"/>
<path d="M391.435,11.159c3.073,0,5.573-2.5,5.573-5.573c0-3.072-2.5-5.572-5.573-5.572c-3.072,0-5.572,2.5-5.572,5.572
	C385.862,8.659,388.362,11.159,391.435,11.159z M391.435,0.914c2.577,0,4.673,2.096,4.673,4.672s-2.096,4.673-4.673,4.673
	c-2.576,0-4.672-2.097-4.672-4.673S388.858,0.914,391.435,0.914z"/>
<path d="M737.381,11.146c3.073,0,5.573-2.5,5.573-5.573c0-3.072-2.5-5.572-5.573-5.572c-3.072,0-5.572,2.5-5.572,5.572
	C731.809,8.646,734.309,11.146,737.381,11.146z M737.381,0.9c2.576,0,4.673,2.096,4.673,4.672s-2.097,4.673-4.673,4.673
	s-4.672-2.097-4.672-4.673S734.805,0.9,737.381,0.9z"/>
<path d="M46.38,11.184c3.073,0,5.573-2.5,5.573-5.573c0-3.072-2.5-5.572-5.573-5.572c-3.072,0-5.572,2.5-5.572,5.572
	C40.808,8.684,43.308,11.184,46.38,11.184z M46.38,0.938c2.576,0,4.674,2.096,4.674,4.672s-2.098,4.673-4.674,4.673
	s-4.672-2.097-4.672-4.673S43.804,0.938,46.38,0.938z"/>
<path d="M219.383,41.793c-12.852,0-23.307,10.455-23.307,23.307c0,12.854,10.455,23.311,23.307,23.311
	c12.854,0,23.311-10.457,23.311-23.311C242.693,52.248,232.236,41.793,219.383,41.793z M219.383,87.41
	c-12.3,0-22.307-10.009-22.307-22.311c0-12.3,10.007-22.307,22.307-22.307c12.302,0,22.311,10.007,22.311,22.307
	C241.693,77.401,231.685,87.41,219.383,87.41z"/>
<path d="M574.348,64.865c-0.483-1.436-1.191-2.883-2.125-3.977c-0.934-1.096-2.069-2.042-3.408-2.654
	c-1.336-0.612-2.826-0.965-4.469-0.965c-1.578,0-3.036,0.282-4.373,0.897c-1.336,0.614-2.488,1.446-3.455,2.526
	c-0.965,1.076-1.708,2.307-2.223,3.69c-0.516,1.386-0.775,2.866-0.775,4.442c0,1.58,0.251,3.074,0.752,4.489
	c0.498,1.421,1.23,2.667,2.198,3.747c0.966,1.079,2.116,1.924,3.455,2.538c1.335,0.608,2.809,0.915,4.421,0.915
	c2.191,0,4.154-0.523,5.895-1.571c1.74-1.044,3.108-2.534,4.107-4.47l-1.836-1.062c-0.837,1.548-1.931,2.78-3.286,3.695
	c-1.353,0.921-2.884,1.378-4.589,1.378c-2.579,0-4.712-0.494-6.402-2.221c-1.693-1.725-2.539-4.473-2.539-6.473h19.377
	C575.072,67.793,574.832,66.293,574.348,64.865z M555.695,67.793c0.099-2,0.389-2.398,0.871-3.353
	c0.481-0.948,1.125-1.973,1.934-2.699c0.804-0.728,1.705-1.382,2.706-1.784c0.997-0.406,2.06-0.651,3.187-0.651
	c1.095,0,2.145,0.173,3.143,0.579c0.998,0.402,1.877,0.961,2.634,1.701c0.756,0.741,1.368,1.956,1.835,2.89
	c0.469,0.933,0.766,1.317,0.895,3.317H555.695z"/>
<rect x="553.076" y="48.793" width="21" height="1"/>
<g>
	<path fill="#FFFFFF" d="M31.307,70.195c-1.571,0-2.71-1.044-2.734-2.639h0.888c0.048,1.091,0.731,1.835,1.847,1.835
		c0.983,0,1.787-0.768,1.787-1.764c0-1.199-1.007-1.606-1.979-1.895c-1.26-0.372-2.303-0.804-2.303-2.339
		c0-1.403,1.127-2.387,2.494-2.387s2.459,1.031,2.459,2.411h-0.888c0-0.863-0.695-1.607-1.571-1.607
		c-0.887,0-1.606,0.647-1.606,1.547c0,1.188,1.211,1.392,2.11,1.667c1.271,0.384,2.171,1.188,2.171,2.567
		C33.981,69.067,32.771,70.195,31.307,70.195z"/>
	<path fill="#FFFFFF" d="M45.995,70.039v-8.875h0.888v8.875H45.995z"/>
	<path fill="#FFFFFF" d="M64.761,70.039l-2.495-3.79l-2.53,3.79h-1.044l3.011-4.533l-2.843-4.342h1.044l2.362,3.55l2.339-3.55h1.031
		l-2.854,4.342l3.034,4.533H64.761z"/>
</g>
<g>
	<path fill="#FFFFFF" d="M375.712,129.195c-1.571,0-2.71-1.044-2.734-2.639h0.888c0.048,1.091,0.731,1.835,1.847,1.835
		c0.983,0,1.787-0.768,1.787-1.764c0-1.199-1.007-1.606-1.979-1.895c-1.26-0.372-2.303-0.804-2.303-2.339
		c0-1.403,1.127-2.387,2.494-2.387s2.459,1.031,2.459,2.411h-0.888c0-0.863-0.695-1.607-1.571-1.607
		c-0.887,0-1.606,0.647-1.606,1.547c0,1.188,1.211,1.392,2.11,1.667c1.271,0.384,2.171,1.188,2.171,2.567
		C378.387,128.067,377.176,129.195,375.712,129.195z"/>
	<path fill="#FFFFFF" d="M390.4,129.039v-8.875h0.888v8.875H390.4z"/>
	<path fill="#FFFFFF" d="M409.166,129.039l-2.495-3.79l-2.53,3.79h-1.044l3.011-4.533l-2.843-4.342h1.044l2.362,3.55l2.339-3.55
		h1.031l-2.854,4.342l3.034,4.533H409.166z"/>
</g>
</svg>
