<?xml version="1.0" encoding="utf-8"?>
<!-- Generator: Adobe Illustrator 15.1.0, SVG Export Plug-In . SVG Version: 6.00 Build 0)  -->
<!DOCTYPE svg PUBLIC "-//W3C//DTD SVG 1.1//EN" "http://www.w3.org/Graphics/SVG/1.1/DTD/svg11.dtd">
<svg version="1.1" id="Calque_1" xmlns="http://www.w3.org/2000/svg" xmlns:xlink="http://www.w3.org/1999/xlink" x="0px" y="0px"
	 width="223px" height="194.667px" viewBox="0 0 223 194.667" enable-background="new 0 0 223 194.667" xml:space="preserve" fill="#FFFFFF">

	<path fill="#FFFFFF" d="M138.486,86.954c-3.938-4.043-8.492-7.169-13.672-9.38c-5.174-2.211-10.621-3.316-16.336-3.316
		c-5.608,0-11,1.08-16.179,3.234l-0.323-0.322l26.5-37.511c2.459-3.416,3.914-7.601,3.914-12.119
		c0-11.464-9.328-20.792-20.792-20.792c-11.465,0-20.792,9.328-20.792,20.792c0,11.463,9.327,20.79,20.792,20.79
		c0.378,0,0.753-0.011,1.125-0.03l-29.51,41.973c-3.02,4.314-5.257,8.6-6.712,12.859c-1.457,4.262-2.185,8.925-2.185,13.99
		c0,5.823,1.131,11.354,3.397,16.584c2.265,5.23,5.39,9.789,9.379,13.668c3.992,3.883,8.601,6.901,13.834,9.063
		c5.229,2.154,10.758,3.234,16.58,3.234c6.039,0,11.754-1.108,17.146-3.316c5.394-2.21,10.135-5.527,14.236-9.949
		c3.772-4.097,6.737-8.68,8.896-13.752c2.152-5.066,3.232-10.24,3.232-15.527c0-5.715-1.106-11.162-3.316-16.336
		C145.494,95.61,142.421,91,138.486,86.954z M101.598,40.414c-7.099,0-12.877-5.775-12.877-12.874
		c0-7.101,5.778-12.875,12.877-12.875c7.101,0,12.875,5.774,12.875,12.875c0,2.585-0.769,4.994-2.084,7.012l-0.539,0.767
		C109.495,38.412,105.776,40.414,101.598,40.414z M140.508,130.712c-1.834,4.313-4.395,8.092-7.685,11.324
		c-3.292,3.234-7.117,5.771-11.482,7.601c-4.372,1.839-8.927,2.754-13.672,2.754c-4.853,0-9.437-0.915-13.751-2.754
		c-4.312-1.83-8.116-4.39-11.401-7.683c-3.292-3.287-5.853-7.062-7.686-11.324c-1.834-4.256-2.75-8.813-2.75-13.668
		c0-4.744,0.917-9.271,2.75-13.588c1.833-4.313,4.394-8.112,7.686-11.407c3.285-3.287,7.114-5.849,11.483-7.683
		c4.367-1.833,8.923-2.749,13.669-2.749c4.744,0,9.3,0.916,13.671,2.749c4.366,1.834,8.189,4.396,11.483,7.683
		c3.292,3.293,5.85,7.094,7.685,11.407c1.833,4.314,2.75,8.844,2.75,13.588C143.258,121.817,142.341,126.401,140.508,130.712z"/>
	<rect x="39.877" y="172.044" fill="#FFFFFF" width="1.443" height="15.875"/>
	<path fill="#FFFFFF" d="M174.557,174.315v-2.271h-1.442v15.873h1.442v-9.633c0-2.271,2.404-4.533,3.366-4.836v-1.727
		C175.999,172.487,175.518,173.474,174.557,174.315z"/>
	<polygon fill="#FFFFFF" points="78.648,172.044 76.838,172.044 71.877,178.313 66.951,172.044 65.14,172.044 70.905,179.546 
		64.604,187.919 66.38,187.919 71.877,180.812 77.408,187.919 79.186,187.919 72.882,179.546 	"/>
	<path fill="#FFFFFF" d="M216.234,176.287c-0.412-0.983-0.994-1.847-1.743-2.582c-0.75-0.736-1.622-1.306-2.615-1.711
		c-0.994-0.402-2.05-0.604-3.167-0.604c-1.096,0-2.134,0.213-3.117,0.639c-0.984,0.426-1.842,1.006-2.581,1.744
		c-0.737,0.736-1.313,1.602-1.727,2.596c-0.415,0.996-0.621,2.041-0.621,3.137c0,1.07,0.207,2.101,0.621,3.084
		c0.413,0.982,0.987,1.844,1.727,2.58c0.739,0.734,1.597,1.317,2.581,1.744c0.983,0.424,2.021,0.635,3.117,0.635
		c1.117,0,2.173-0.197,3.167-0.602c0.993-0.404,1.866-0.974,2.615-1.711c0.749-0.738,1.331-1.597,1.743-2.582
		c0.414-0.98,0.619-2.046,0.619-3.186C216.854,178.328,216.646,177.269,216.234,176.287z M214.842,182.102
		c-0.333,0.813-0.814,1.524-1.439,2.127c-0.627,0.604-1.348,1.074-2.161,1.407c-0.816,0.337-1.692,0.503-2.634,0.503
		c-0.893,0-1.737-0.175-2.529-0.534c-0.794-0.357-1.48-0.841-2.063-1.458c-0.582-0.614-1.033-1.325-1.355-2.128
		c-0.325-0.805-0.487-1.643-0.487-2.516c0-0.871,0.163-1.715,0.487-2.533c0.322-0.813,0.773-1.533,1.355-2.159
		c0.58-0.625,1.269-1.116,2.063-1.478c0.792-0.354,1.637-0.531,2.529-0.531c0.939,0,1.822,0.166,2.648,0.498
		c0.826,0.34,1.546,0.808,2.162,1.41c0.613,0.604,1.091,1.316,1.423,2.146c0.336,0.825,0.505,1.71,0.505,2.649
		C215.348,180.419,215.178,181.287,214.842,182.102z"/>
	<rect x="135.391" y="166.273" fill="#FFFFFF" width="14.908" height="1.443"/>
	<path fill="#FFFFFF" d="M16.405,182.147c-0.048-0.495-0.16-0.929-0.339-1.304c-0.246-0.514-0.571-0.939-0.973-1.272
		c-0.403-0.335-0.833-0.608-1.29-0.821c-0.458-0.215-1.034-0.44-1.727-0.688c-1.072-0.4-1.873-0.792-2.396-1.171
		c-0.526-0.379-0.79-0.938-0.79-1.679c0-0.646,0.273-1.211,0.822-1.689c0.546-0.48,1.157-0.721,1.826-0.721
		c0.604,0,1.146,0.152,1.625,0.468c0.259,0.169,0.481,0.373,0.671,0.604h1.722l0.004-0.002c-0.335-0.713-0.883-1.307-1.644-1.772
		c-0.759-0.472-1.53-0.708-2.313-0.708c-1.162,0-2.157,0.371-2.984,1.105c-0.827,0.738-1.239,1.678-1.239,2.817
		c0,0.625,0.128,1.167,0.385,1.624c0.256,0.457,0.597,0.846,1.022,1.154c0.424,0.314,0.866,0.576,1.324,0.789
		c0.457,0.214,1.055,0.451,1.792,0.721c0.983,0.337,1.732,0.719,2.248,1.141c0.404,0.336,0.644,0.807,0.73,1.404
		c0.023,0.16,0.041,0.326,0.041,0.506c0,0.33-0.041,0.645-0.116,0.938c-0.149,0.582-0.444,1.1-0.891,1.547
		c-0.669,0.67-1.498,1.002-2.479,1.002c-0.984,0-1.794-0.284-2.431-0.854c-0.497-0.445-0.892-1.015-1.192-1.695H6.146
		c0.324,1.188,0.953,2.143,1.89,2.853c0.973,0.739,2.107,1.104,3.403,1.104c1.408,0,2.591-0.449,3.553-1.357
		c0.755-0.71,1.209-1.577,1.37-2.6c0.043-0.277,0.07-0.564,0.07-0.865C16.434,182.522,16.423,182.332,16.405,182.147z"/>
	<path fill="#FFFFFF" d="M146.259,185.185c-0.938,0.639-2,0.954-3.183,0.954c-1.79,0-3.27-0.526-4.442-1.726
		c-0.253-0.256-0.473-0.535-0.671-0.826c-0.302-0.438-0.539-0.922-0.714-1.441c-0.245-0.727-0.374-1.525-0.374-2.402h13.441
		c0-1.443-0.168-2.244-0.504-3.236c-0.334-0.992-0.826-1.904-1.476-2.666c-0.647-0.76-1.437-1.368-2.362-1.795
		c-0.927-0.426-1.959-0.646-3.101-0.646c-1.097,0-2.106,0.209-3.035,0.636c-0.927,0.426-1.726,1.008-2.396,1.756
		c-0.668,0.748-1.186,1.604-1.541,2.563c-0.358,0.963-0.536,1.986-0.536,3.082c0,0.95,0.137,1.852,0.396,2.711
		c0.041,0.137,0.076,0.271,0.124,0.404c0.128,0.365,0.285,0.707,0.457,1.037c0.293,0.566,0.646,1.093,1.069,1.563
		c0.669,0.75,1.468,1.335,2.396,1.763c0.926,0.42,1.947,0.633,3.065,0.633c1.521,0,2.883-0.361,4.088-1.09
		c1.138-0.681,2.041-1.641,2.722-2.867h-1.773C147.439,184.22,146.895,184.755,146.259,185.185z M137.479,176.185
		c0.334-0.657,0.78-1.266,1.34-1.768c0.56-0.504,1.185-0.906,1.877-1.186c0.693-0.281,1.431-0.426,2.213-0.426
		c0.759,0,1.486,0.133,2.18,0.415c0.691,0.276,1.303,0.672,1.827,1.187c0.522,0.516,0.948,1.147,1.271,1.797
		c0.326,0.646,0.532,1.61,0.621,2.094h-11.933C136.941,177.816,137.143,176.846,137.479,176.185z"/>
	<path fill="#FFFFFF" d="M110.734,173.349v-0.071H99.341v-1.719h15.181l-11.839,14.09v0.069h11.36v1.719H98.86L110.734,173.349z"/>

</svg>
