<?xml version="1.0" encoding="utf-8"?>
<!-- Generator: Adobe Illustrator 15.1.0, SVG Export Plug-In . SVG Version: 6.00 Build 0)  -->
<!DOCTYPE svg PUBLIC "-//W3C//DTD SVG 1.1//EN" "http://www.w3.org/Graphics/SVG/1.1/DTD/svg11.dtd">
<svg version="1.1" id="Calque_1" xmlns="http://www.w3.org/2000/svg" xmlns:xlink="http://www.w3.org/1999/xlink" x="0px" y="0px"
	 width="457px" height="430px" viewBox="0 0 457 430" enable-background="new 0 0 457 430" xml:space="preserve">
<path d="M283.921,193.093c-8.188-8.405-17.653-14.904-28.423-19.5c-10.758-4.597-22.082-6.896-33.965-6.896
	c-11.66,0-22.866,2.247-33.632,6.725l-0.67-0.67l55.089-77.987c5.113-7.1,8.138-15.801,8.138-25.195
	c0-23.834-19.394-43.227-43.229-43.227c-23.836,0-43.227,19.393-43.227,43.227c0,23.833,19.391,43.224,43.227,43.224
	c0.786,0,1.565-0.023,2.338-0.064l-61.348,87.263c-6.279,8.968-10.929,17.879-13.956,26.735c-3.029,8.858-4.541,18.556-4.541,29.088
	c0,12.105,2.351,23.604,7.062,34.476c4.709,10.878,11.207,20.353,19.5,28.419c8.3,8.07,17.882,14.348,28.762,18.838
	c10.87,4.479,22.366,6.725,34.47,6.725c12.554,0,24.438-2.305,35.648-6.896c11.214-4.594,21.07-11.489,29.597-20.687
	c7.847-8.517,14.013-18.045,18.5-28.588c4.479-10.535,6.726-21.295,6.726-32.285c0-11.881-2.307-23.204-6.899-33.963
	C298.49,211.09,292.102,201.504,283.921,193.093z M207.229,96.338c-14.758,0-26.771-12.01-26.771-26.768
	c0-14.761,12.013-26.768,26.771-26.768c14.763,0,26.769,12.007,26.769,26.768c0,5.376-1.598,10.383-4.336,14.581l-1.119,1.592
	C223.647,92.175,215.917,96.338,207.229,96.338z M288.125,284.068c-3.814,8.97-9.135,16.82-15.977,23.543
	c-6.847,6.729-14.797,11.994-23.873,15.803c-9.088,3.82-18.561,5.723-28.423,5.723c-10.09,0-19.621-1.9-28.59-5.723
	c-8.963-3.809-16.873-9.127-23.704-15.971c-6.844-6.838-12.167-14.684-15.978-23.545c-3.814-8.853-5.718-18.324-5.718-28.416
	c0-9.861,1.904-19.277,5.718-28.25c3.811-8.965,9.134-16.866,15.978-23.713c6.831-6.834,14.791-12.16,23.874-15.974
	c9.079-3.809,18.552-5.716,28.419-5.716c9.863,0,19.334,1.907,28.422,5.716c9.078,3.814,17.027,9.14,23.873,15.974
	c6.844,6.847,12.162,14.749,15.978,23.713c3.812,8.972,5.718,18.388,5.718,28.25C293.843,265.574,291.938,275.104,288.125,284.068z"
	/>
<rect x="79.596" y="370" width="3" height="33"/>
<path d="M359.596,374.719V370h-3v33h3v-20.023c0-4.727,5-9.427,7-10.059v-3.584C362.596,370.919,361.596,372.969,359.596,374.719z"
	/>
<polygon points="160.202,370 156.438,370 146.125,383.033 135.882,370 132.118,370 144.103,385.592 131.003,403 134.695,403 
	146.125,388.227 157.623,403 161.319,403 148.214,385.592 "/>
<path d="M446.243,378.818c-0.856-2.049-2.065-3.838-3.623-5.37c-1.557-1.531-3.37-2.716-5.437-3.554
	c-2.066-0.836-4.264-1.26-6.585-1.26c-2.278,0-4.438,0.443-6.48,1.327c-2.046,0.886-3.83,2.089-5.365,3.628
	c-1.535,1.53-2.729,3.327-3.59,5.396c-0.861,2.07-1.291,4.24-1.291,6.521c0,2.226,0.43,4.363,1.291,6.412
	c0.859,2.041,2.055,3.831,3.59,5.362c1.535,1.529,3.319,2.742,5.365,3.627c2.045,0.878,4.202,1.32,6.48,1.32
	c2.321,0,4.519-0.416,6.585-1.252c2.064-0.838,3.88-2.021,5.437-3.555c1.558-1.538,2.767-3.32,3.623-5.37
	c0.859-2.04,1.29-4.253,1.29-6.62S447.104,380.859,446.243,378.818z M443.352,390.904c-0.692,1.695-1.692,3.172-2.993,4.425
	c-1.305,1.258-2.802,2.231-4.495,2.926c-1.698,0.702-3.52,1.048-5.474,1.048c-1.855,0-3.612-0.367-5.26-1.115
	c-1.651-0.742-3.08-1.748-4.288-3.027s-2.146-2.758-2.819-4.426c-0.676-1.674-1.013-3.416-1.013-5.227
	c0-1.816,0.337-3.566,1.013-5.268c0.673-1.693,1.611-3.191,2.819-4.492c1.208-1.299,2.637-2.32,4.288-3.068
	c1.646-0.742,3.401-1.109,5.26-1.109c1.954,0,3.788,0.349,5.508,1.041c1.718,0.701,3.215,1.676,4.494,2.929
	c1.275,1.259,2.268,2.742,2.96,4.464c0.697,1.716,1.049,3.555,1.049,5.506C444.399,387.413,444.049,389.211,443.352,390.904z"/>
<rect x="278.17" y="358" width="30.993" height="3"/>
<path d="M30.797,391c-0.101-1.025-0.333-1.93-0.705-2.708c-0.511-1.067-1.186-1.953-2.022-2.647
	c-0.837-0.691-1.732-1.266-2.682-1.709c-0.952-0.44-2.15-0.918-3.59-1.429c-2.229-0.838-3.893-1.646-4.981-2.437
	c-1.093-0.789-1.641-1.953-1.641-3.484c0-1.348,0.569-2.518,1.708-3.518c1.137-1.002,2.406-1.498,3.797-1.498
	c1.256,0,2.383,0.32,3.38,0.973c0.538,0.352,1,0.773,1.396,1.258h3.58l0.009-0.005c-0.698-1.483-1.837-2.716-3.417-3.688
	c-1.579-0.979-3.181-1.471-4.809-1.471c-2.416,0-4.484,0.77-6.203,2.301c-1.719,1.537-2.575,3.484-2.575,5.859
	c0,1.301,0.265,2.423,0.8,3.376c0.534,0.952,1.242,1.757,2.126,2.402c0.882,0.653,1.8,1.196,2.753,1.641
	c0.949,0.441,2.194,0.938,3.725,1.496c2.046,0.701,3.601,1.491,4.673,2.369c0.841,0.696,1.339,1.678,1.518,2.919
	c0.048,0.335,0.085,0.68,0.085,1.055c0,0.688-0.085,1.334-0.242,1.945c-0.311,1.214-0.923,2.286-1.851,3.215
	c-1.392,1.395-3.114,2.088-5.155,2.088c-2.046,0-3.73-0.592-5.054-1.775c-1.034-0.924-1.855-2.105-2.478-3.525H9.468
	c0.674,2.473,1.981,4.453,3.93,5.932c2.021,1.536,4.38,2.299,7.075,2.299c2.926,0,5.387-0.938,7.387-2.824
	c1.57-1.475,2.513-3.28,2.848-5.404c0.091-0.578,0.146-1.176,0.146-1.802C30.857,391.779,30.834,391.383,30.797,391z"/>
<path d="M300.766,397.316c-1.949,1.326-4.158,1.984-6.617,1.984c-3.721,0-6.795-1.096-9.235-3.586
	c-0.524-0.533-0.981-1.111-1.396-1.717c-0.627-0.919-1.121-1.919-1.483-3c-0.511-1.512-0.777-3.171-0.777-5H309.2
	c0-3-0.349-4.663-1.046-6.727c-0.696-2.066-1.719-3.965-3.065-5.543s-2.982-2.848-4.913-3.73c-1.926-0.887-4.076-1.346-6.443-1.346
	c-2.277,0-4.381,0.434-6.311,1.316c-1.927,0.885-3.586,2.1-4.98,3.656c-1.393,1.553-2.465,3.334-3.205,5.329
	c-0.744,2.001-1.115,4.135-1.115,6.407c0,1.971,0.285,3.844,0.824,5.635c0.084,0.281,0.158,0.566,0.256,0.845
	c0.268,0.757,0.594,1.468,0.951,2.155c0.609,1.176,1.342,2.266,2.221,3.248c1.393,1.559,3.053,2.775,4.982,3.661
	c1.926,0.878,4.053,1.319,6.377,1.319c3.158,0,5.991-0.754,8.5-2.268c2.362-1.415,4.242-3.409,5.655-5.963H304.2
	C303.219,395.309,302.085,396.425,300.766,397.316z M282.511,378.604c0.692-1.363,1.622-2.625,2.785-3.672
	c1.161-1.05,2.461-1.885,3.903-2.463c1.438-0.586,2.971-0.886,4.597-0.886c1.579,0,3.093,0.278,4.533,0.865
	c1.438,0.579,2.706,1.397,3.798,2.467c1.089,1.067,1.974,2.385,2.646,3.731c0.676,1.348,1.104,3.354,1.291,4.354h-24.811
	C281.395,382,281.813,379.98,282.511,378.604z"/>
<path d="M226.908,372.71v-0.147h-23.686v-3.576h31.561l-24.618,29.293v0.146h23.618V402h-31.561L226.908,372.71z"/>
</svg>
