<?xml version="1.0" encoding="utf-8"?>
<!-- Generator: Adobe Illustrator 15.1.0, SVG Export Plug-In . SVG Version: 6.00 Build 0)  -->
<!DOCTYPE svg PUBLIC "-//W3C//DTD SVG 1.1//EN" "http://www.w3.org/Graphics/SVG/1.1/DTD/svg11.dtd">
<svg version="1.1" id="Calque_1" xmlns="http://www.w3.org/2000/svg" xmlns:xlink="http://www.w3.org/1999/xlink" x="0px" y="0px"
	 width="233.434px" height="186.636px" viewBox="0 0 233.434 186.636" enable-background="new 0 0 233.434 186.636"
	 xml:space="preserve">
<path d="M112.692,162.07c0,0.953,0.773,1.727,1.729,1.727c0.029,0,0.063,0,0.092-0.002l-2.451,3.484
	c-0.25,0.359-0.436,0.715-0.557,1.068c-0.119,0.354-0.182,0.74-0.182,1.162c0,0.484,0.096,0.941,0.281,1.377
	c0.188,0.434,0.446,0.813,0.779,1.135c0.33,0.322,0.713,0.572,1.147,0.752c0.434,0.18,0.894,0.27,1.378,0.27
	c0.502,0,0.976-0.092,1.422-0.273c0.448-0.186,0.842-0.46,1.184-0.826c0.313-0.34,0.561-0.722,0.738-1.145
	c0.179-0.42,0.271-0.85,0.271-1.289c0-0.475-0.095-0.926-0.276-1.355c-0.185-0.43-0.438-0.813-0.766-1.146
	c-0.325-0.336-0.706-0.596-1.137-0.778s-0.884-0.276-1.354-0.276c-0.466,0-0.914,0.092-1.346,0.271l-0.023-0.024l2.199-3.115
	c0.203-0.283,0.322-0.631,0.322-1.006c0-0.951-0.771-1.729-1.725-1.729C113.467,160.343,112.692,161.119,112.692,162.07z
	 M113.787,166.783c0.363-0.152,0.742-0.229,1.136-0.229c0.396,0,0.771,0.076,1.136,0.229c0.362,0.152,0.682,0.365,0.953,0.639
	c0.273,0.272,0.484,0.588,0.641,0.945c0.15,0.359,0.227,0.734,0.227,1.129c0,0.402-0.074,0.783-0.227,1.143
	c-0.154,0.357-0.365,0.674-0.641,0.941c-0.271,0.269-0.591,0.479-0.953,0.631c-0.362,0.15-0.739,0.229-1.136,0.229
	c-0.402,0-0.783-0.076-1.142-0.229c-0.358-0.151-0.678-0.363-0.947-0.641c-0.273-0.271-0.486-0.584-0.639-0.939
	c-0.152-0.354-0.229-0.73-0.229-1.135c0-0.395,0.076-0.77,0.229-1.129c0.15-0.357,0.363-0.674,0.639-0.945
	C113.105,167.148,113.426,166.936,113.787,166.783z M115.489,162.07c0,0.217-0.064,0.414-0.173,0.583l-0.048,0.063
	c-0.193,0.257-0.504,0.422-0.85,0.422c-0.592,0-1.07-0.479-1.07-1.068c0-0.589,0.479-1.068,1.07-1.068
	C115.008,161.001,115.489,161.481,115.489,162.07z"/>
<path d="M101.115,166.567l13.786,13.786l13.785-13.786l-13.785-13.787L101.115,166.567z M114.902,179.646l-13.079-13.079
	l13.079-13.081l13.077,13.081L114.902,179.646z"/>
<path d="M132.198,52.881c-2.55-2.617-5.497-4.64-8.851-6.071c-3.35-1.431-6.875-2.146-10.573-2.146
	c-3.631,0-7.117,0.698-10.472,2.093l-0.209-0.208l17.15-24.279c1.593-2.211,2.534-4.92,2.534-7.845
	c0-7.42-6.038-13.457-13.458-13.457c-7.422,0-13.459,6.037-13.459,13.457c0,7.42,6.037,13.457,13.459,13.457
	c0.244,0,0.485-0.007,0.729-0.02l-19.1,27.166c-1.954,2.792-3.402,5.566-4.347,8.323c-0.941,2.759-1.412,5.777-1.412,9.056
	c0,3.77,0.73,7.349,2.197,10.733c1.467,3.387,3.489,6.336,6.071,8.848s5.565,4.467,8.953,5.864
	c3.384,1.396,6.963,2.094,10.729,2.094c3.908,0,7.608-0.718,11.101-2.146c3.49-1.432,6.56-3.577,9.214-6.441
	c2.442-2.649,4.361-5.617,5.759-8.899c1.396-3.279,2.094-6.629,2.094-10.052c0-3.698-0.718-7.224-2.146-10.572
	C136.734,58.483,134.744,55.499,132.198,52.881z M108.323,22.759c-4.597,0-8.334-3.739-8.334-8.334c0-4.595,3.737-8.333,8.334-8.333
	c4.596,0,8.333,3.738,8.333,8.333c0,1.675-0.497,3.233-1.352,4.539l-0.349,0.496C113.433,21.463,111.028,22.759,108.323,22.759z
	 M133.507,81.204c-1.188,2.791-2.844,5.236-4.974,7.329c-2.132,2.095-4.606,3.733-7.435,4.92c-2.829,1.189-5.776,1.781-8.849,1.781
	c-3.141,0-6.107-0.592-8.901-1.781c-2.79-1.187-5.252-2.842-7.378-4.973c-2.131-2.129-3.788-4.57-4.976-7.33
	c-1.188-2.755-1.779-5.704-1.779-8.846c0-3.071,0.593-6.002,1.779-8.795c1.188-2.792,2.845-5.251,4.976-7.383
	c2.126-2.128,4.604-3.786,7.434-4.973c2.824-1.187,5.774-1.78,8.848-1.78c3.07,0,6.02,0.594,8.849,1.78
	c2.826,1.187,5.303,2.845,7.435,4.973c2.13,2.132,3.786,4.591,4.974,7.383c1.188,2.793,1.78,5.724,1.78,8.795
	C135.287,75.446,134.694,78.412,133.507,81.204z"/>
<rect x="68.304" y="107.896" width="1" height="10"/>
<path d="M155.304,109.425v-1.528h-1v10h1v-5.899c0-1.473,2-2.937,3-3.133v-1.115C156.304,108.242,156.304,108.88,155.304,109.425z"
	/>
<polygon points="94.1,107.896 92.929,107.896 89.719,111.955 86.531,107.896 85.359,107.896 89.089,112.613 85.011,117.896 
	86.16,117.896 89.719,113.298 93.299,117.896 94.448,117.896 90.369,112.613 "/>
<path d="M183.153,110.703c-0.269-0.64-0.646-1.197-1.128-1.673c-0.484-0.478-1.052-0.846-1.691-1.106
	c-0.646-0.26-1.328-0.393-2.051-0.393c-0.71,0-1.382,0.139-2.021,0.413c-0.637,0.274-1.19,0.649-1.67,1.13
	c-0.478,0.477-0.85,1.035-1.117,1.68c-0.269,0.646-0.4,1.322-0.4,2.029c0,0.693,0.134,1.358,0.4,1.997
	c0.27,0.636,0.642,1.192,1.117,1.669c0.479,0.477,1.033,0.854,1.67,1.131c0.639,0.271,1.311,0.41,2.021,0.41
	c0.723,0,1.404-0.13,2.051-0.39c0.642-0.263,1.207-0.63,1.691-1.106c0.482-0.479,0.859-1.033,1.128-1.673
	c0.269-0.635,0.399-1.323,0.399-2.062C183.553,112.022,183.421,111.337,183.153,110.703z M182.252,114.464
	c-0.216,0.527-0.527,0.986-0.933,1.377c-0.405,0.393-0.872,0.695-1.398,0.91c-0.529,0.22-1.096,0.328-1.704,0.328
	c-0.579,0-1.125-0.115-1.638-0.35c-0.514-0.23-0.959-0.545-1.335-0.941c-0.376-0.398-0.669-0.858-0.878-1.377
	c-0.211-0.521-0.315-1.063-0.315-1.629c0-0.564,0.104-1.109,0.315-1.641c0.209-0.525,0.502-0.993,0.878-1.396
	c0.376-0.404,0.821-0.724,1.335-0.957c0.513-0.229,1.059-0.346,1.638-0.346c0.608,0,1.18,0.107,1.714,0.324
	c0.535,0.219,1.001,0.521,1.4,0.912c0.396,0.392,0.705,0.854,0.921,1.389c0.218,0.534,0.326,1.105,0.326,1.715
	C182.578,113.376,182.47,113.938,182.252,114.464z"/>
<rect x="130.827" y="104.22" width="9.646" height="0.935"/>
<path d="M53.816,114.494c-0.032-0.318-0.105-0.602-0.222-0.844c-0.16-0.333-0.369-0.607-0.63-0.822
	c-0.261-0.218-0.539-0.396-0.835-0.533c-0.297-0.139-0.669-0.285-1.118-0.444c-0.691-0.261-1.212-0.513-1.551-0.759
	c-0.34-0.244-0.511-0.607-0.511-1.086c0-0.418,0.177-0.782,0.532-1.096c0.354-0.312,0.746-0.466,1.182-0.466
	c0.392,0,0.741,0.101,1.053,0.304c0.167,0.109,0.313,0.242,0.437,0.394h1.112l0.003-0.002c-0.217-0.464-0.57-0.847-1.063-1.147
	c-0.491-0.306-0.989-0.457-1.496-0.457c-0.752,0-1.396,0.237-1.931,0.715c-0.535,0.479-0.805,1.086-0.805,1.826
	c0,0.403,0.083,0.754,0.25,1.051c0.166,0.297,0.388,0.547,0.661,0.748c0.274,0.203,0.563,0.371,0.857,0.51
	c0.296,0.138,0.683,0.293,1.16,0.467c0.637,0.218,1.121,0.463,1.454,0.736c0.263,0.218,0.417,0.521,0.473,0.91
	c0.015,0.104,0.025,0.211,0.025,0.326c0,0.215-0.025,0.416-0.075,0.605c-0.098,0.378-0.287,0.712-0.576,1.001
	c-0.434,0.435-0.969,0.649-1.604,0.649c-0.637,0-1.159-0.186-1.57-0.555c-0.322-0.287-0.578-0.656-0.772-1.098h-1.081
	c0.21,0.77,0.616,1.387,1.226,1.846c0.63,0.479,1.361,0.717,2.2,0.717c0.911,0,1.68-0.293,2.303-0.88
	c0.486-0.459,0.78-1.021,0.887-1.683c0.027-0.182,0.046-0.366,0.046-0.563C53.834,114.736,53.825,114.613,53.816,114.494z"/>
<path d="M137.862,116.46c-0.606,0.412-1.294,0.619-2.063,0.619c-1.157,0-2.114-0.344-2.874-1.117
	c-0.164-0.166-0.307-0.348-0.435-0.534c-0.195-0.286-0.352-0.599-0.462-0.935c-0.159-0.472-0.242-0.988-0.242-1.559h8.699
	c0-0.936-0.108-1.45-0.326-2.094c-0.216-0.645-0.534-1.233-0.954-1.727c-0.42-0.49-0.929-0.887-1.529-1.162
	c-0.6-0.274-1.27-0.418-2.007-0.418c-0.708,0-1.363,0.135-1.965,0.409c-0.6,0.274-1.115,0.653-1.55,1.14
	c-0.435,0.482-0.769,1.037-0.998,1.658c-0.232,0.623-0.35,1.287-0.35,1.996c0,0.611,0.09,1.194,0.259,1.754
	c0.023,0.086,0.05,0.176,0.078,0.262c0.082,0.236,0.187,0.457,0.298,0.672c0.188,0.365,0.417,0.705,0.689,1.013
	c0.436,0.483,0.949,0.864,1.552,1.142c0.601,0.271,1.263,0.41,1.984,0.41c0.983,0,1.866-0.234,2.646-0.705
	c0.735-0.441,1.32-1.063,1.763-1.856h-1.149C138.626,115.835,138.272,116.183,137.862,116.46z M132.179,110.634
	c0.215-0.424,0.505-0.816,0.867-1.143c0.361-0.328,0.766-0.589,1.216-0.769c0.447-0.183,0.924-0.274,1.433-0.274
	c0.489,0,0.962,0.088,1.409,0.27c0.447,0.181,0.844,0.436,1.184,0.769c0.339,0.333,0.615,0.742,0.824,1.161
	c0.211,0.42,0.344,1.044,0.399,1.355h-7.723C131.831,111.691,131.961,111.063,132.179,110.634z"/>
<path d="M114.868,108.798v-0.045h-7.373v-1.113h9.825l-7.664,9.119v0.046h7.353v1.112h-9.826L114.868,108.798z"/>
</svg>
