<?xml version="1.0" encoding="utf-8"?>
<!-- Generator: Adobe Illustrator 15.1.0, SVG Export Plug-In . SVG Version: 6.00 Build 0)  -->
<!DOCTYPE svg PUBLIC "-//W3C//DTD SVG 1.1//EN" "http://www.w3.org/Graphics/SVG/1.1/DTD/svg11.dtd">
<svg version="1.1" id="Calque_1" xmlns="http://www.w3.org/2000/svg" xmlns:xlink="http://www.w3.org/1999/xlink" x="0px" y="0px"
	 width="66.852px" height="66.852px" viewBox="0 0 66.852 66.852" enable-background="new 0 0 66.852 66.852" xml:space="preserve">
<g>
	
		<rect x="7405.057" y="7448.352" transform="matrix(0.7071 0.7071 -0.7071 0.7071 7443.1455 -3071.0947)" width="47.156" height="1.173"/>
	
		<rect x="7526.121" y="7392.538" transform="matrix(-0.7075 0.7067 -0.7067 -0.7075 18092.9219 7344.1499)" width="1.17" height="47.156"/>
	
		<rect x="7431.083" y="7431.99" transform="matrix(0.7071 0.7071 -0.7071 0.7071 7445.8228 -3110.6523)" width="93.435" height="1.174"/>
</g>
<path id="computer-3-icon" d="M7442.543,7438.313c-0.173,0.613-1.014,1.453-1.628,1.627h7.771c-0.595-0.152-1.476-1.033-1.627-1.627
	H7442.543z M7451.796,7425.041h-13.992c-0.533,0-0.966,0.433-0.966,0.965v10.379c0,0.534,0.434,0.967,0.966,0.967h13.992
	c0.533,0,0.966-0.433,0.966-0.967v-10.379C7452.762,7425.472,7452.329,7425.041,7451.796,7425.041z M7451.134,7434.229h-12.669
	v-7.563h12.669V7434.229L7451.134,7434.229z"/>
<path id="smartphone-4-icon" d="M7513.634,7423.813h-6.671c-0.771,0-1.396,0.625-1.396,1.396v14.64c0,0.771,0.625,1.396,1.396,1.396
	h6.671c0.771,0,1.397-0.624,1.397-1.396v-14.64C7515.031,7424.438,7514.404,7423.813,7513.634,7423.813z M7509.559,7425.091h1.565
	c0.093,0,0.169,0.076,0.169,0.17s-0.076,0.168-0.169,0.168h-1.565c-0.094,0-0.17-0.074-0.17-0.168
	S7509.465,7425.091,7509.559,7425.091z M7510.342,7440.444c-0.374,0-0.678-0.305-0.678-0.678c0-0.375,0.304-0.676,0.678-0.676
	c0.373,0,0.678,0.301,0.678,0.676C7511.02,7440.14,7510.715,7440.444,7510.342,7440.444z M7513.971,7438.358h-7.342V7426.7h7.342
	V7438.358z"/>
<path id="smartphone-4-icon_1_" d="M36.551,24.865H29.88c-0.771,0-1.396,0.625-1.396,1.396V40.9c0,0.772,0.625,1.396,1.396,1.396
	h6.671c0.771,0,1.397-0.624,1.397-1.396V26.261C37.949,25.49,37.323,24.865,36.551,24.865z M32.475,26.144h1.565
	c0.093,0,0.169,0.076,0.169,0.169c0,0.094-0.076,0.168-0.169,0.168h-1.565c-0.094,0-0.169-0.074-0.169-0.168
	C32.306,26.22,32.382,26.144,32.475,26.144z M33.259,41.496c-0.374,0-0.678-0.305-0.678-0.678c0-0.375,0.304-0.677,0.678-0.677
	c0.373,0,0.679,0.302,0.679,0.677C33.937,41.192,33.632,41.496,33.259,41.496z M36.887,39.41h-7.343V27.752h7.343V39.41z"/>
<g>
	<polygon points="33.529,0 32.702,0.828 33.529,1.656 65.195,33.322 66.023,34.151 66.851,33.322 	"/>
	<polygon points="1.656,33.529 0.828,32.701 0,33.529 33.322,66.852 34.149,66.023 33.322,65.195 	"/>
</g>
</svg>
