<?xml version="1.0" encoding="utf-8"?>
<!-- Generator: Adobe Illustrator 15.1.0, SVG Export Plug-In . SVG Version: 6.00 Build 0)  -->
<!DOCTYPE svg PUBLIC "-//W3C//DTD SVG 1.1//EN" "http://www.w3.org/Graphics/SVG/1.1/DTD/svg11.dtd">
<svg version="1.1" id="Calque_1" xmlns="http://www.w3.org/2000/svg" xmlns:xlink="http://www.w3.org/1999/xlink" x="0px" y="0px"
	 width="117.85px" height="117.849px" viewBox="0 0 117.85 117.849" enable-background="new 0 0 117.85 117.849"
	 xml:space="preserve">
<g>
	<path fill="#FFFFFF" d="M58.925,117.849L0,58.926L58.925,0l58.925,58.926L58.925,117.849z"/>
	<path fill="#010101" d="M58.925,117.849L0,58.926L58.925,0l58.925,58.926L58.925,117.849z M3.021,58.926l55.903,55.901
		l55.899-55.901L58.925,3.023L3.021,58.926z"/>
	<path id="pinterest-icon" fill="#020202" d="M59.695,43.601c-8.377,0-12.604,6.008-12.604,11.019c0,3.031,1.15,5.729,3.613,6.737
		c0.402,0.162,0.765,0.006,0.883-0.441c0.083-0.311,0.275-1.091,0.36-1.416c0.116-0.441,0.072-0.598-0.255-0.982
		c-0.708-0.839-1.162-1.922-1.162-3.459c0-4.457,3.335-8.447,8.682-8.447c4.736,0,7.338,2.895,7.338,6.759
		c0,5.085-2.25,9.376-5.592,9.376c-1.846,0-3.226-1.523-2.781-3.396c0.531-2.233,1.555-4.645,1.555-6.258
		c0-1.443-0.773-2.646-2.378-2.646c-1.886,0-3.402,1.949-3.402,4.564c0,1.663,0.563,2.789,0.563,2.789s-1.932,8.176-2.269,9.608
		c-0.673,2.854-0.101,6.349-0.052,6.704c0.029,0.209,0.297,0.258,0.42,0.1c0.174-0.228,2.418-3.001,3.184-5.771
		c0.214-0.783,1.24-4.847,1.24-4.847c0.611,1.168,2.402,2.195,4.307,2.195c5.67,0,9.516-5.169,9.516-12.085
		C70.861,48.472,66.432,43.601,59.695,43.601z"/>
</g>
</svg>
