<?xml version="1.0" encoding="utf-8"?>
<!-- Generator: Adobe Illustrator 15.1.0, SVG Export Plug-In . SVG Version: 6.00 Build 0)  -->
<!DOCTYPE svg PUBLIC "-//W3C//DTD SVG 1.1//EN" "http://www.w3.org/Graphics/SVG/1.1/DTD/svg11.dtd">
<svg version="1.1" id="Calque_1" xmlns="http://www.w3.org/2000/svg" xmlns:xlink="http://www.w3.org/1999/xlink" x="0px" y="0px"
	 width="132.344px" height="66.896px" viewBox="0 0 132.344 66.896" enable-background="new 0 0 132.344 66.896"
	 xml:space="preserve">
<g>
	<rect x="-6.492" y="49.223" transform="matrix(0.7071 0.7071 -0.7071 0.7071 40.225 2.5069)" width="47.157" height="1.173"/>
	
		<rect x="114.671" y="-6.491" transform="matrix(-0.7071 0.7071 -0.7071 -0.7071 208.8373 -52.3289)" width="1.171" height="47.157"/>
	<rect x="19.455" y="32.861" transform="matrix(0.7071 0.7071 -0.7071 0.7071 43.0323 -36.9942)" width="93.433" height="1.174"/>
</g>
<path id="computer-3-icon" d="M30.993,39.284c-0.173,0.614-1.013,1.454-1.627,1.628h7.769c-0.593-0.153-1.474-1.034-1.627-1.628
	H30.993z M40.246,26.01H26.254c-0.534,0-0.966,0.434-0.966,0.967v10.378c0,0.534,0.433,0.967,0.966,0.967h13.992
	c0.533,0,0.966-0.433,0.966-0.967V26.977C41.212,26.444,40.779,26.01,40.246,26.01z M39.584,35.201H26.915v-7.563h12.669V35.201
	L39.584,35.201z"/>
<path id="smartphone-4-icon" d="M102.084,24.784h-6.671c-0.771,0-1.396,0.625-1.396,1.396v14.639c0,0.771,0.625,1.396,1.396,1.396
	h6.671c0.771,0,1.396-0.624,1.396-1.396V26.181C103.48,25.409,102.855,24.784,102.084,24.784z M98.008,26.063h1.566
	c0.093,0,0.169,0.076,0.169,0.169S99.667,26.4,99.574,26.4h-1.566c-0.093,0-0.169-0.075-0.169-0.168S97.915,26.063,98.008,26.063z
	 M98.792,41.415c-0.374,0-0.679-0.304-0.679-0.677c0-0.375,0.305-0.677,0.679-0.677c0.373,0,0.679,0.302,0.679,0.677
	C99.471,41.111,99.165,41.415,98.792,41.415z M102.42,39.329h-7.342V27.672h7.342V39.329z"/>
</svg>
