<?xml version="1.0" encoding="utf-8"?>
<!-- Generator: Adobe Illustrator 15.1.0, SVG Export Plug-In . SVG Version: 6.00 Build 0)  -->
<!DOCTYPE svg PUBLIC "-//W3C//DTD SVG 1.1//EN" "http://www.w3.org/Graphics/SVG/1.1/DTD/svg11.dtd">
<svg version="1.1" id="Calque_1" xmlns="http://www.w3.org/2000/svg" xmlns:xlink="http://www.w3.org/1999/xlink" x="0px" y="0px"
	 width="117.849px" height="117.85px" viewBox="0 0 117.849 117.85" enable-background="new 0 0 117.849 117.85"
	 xml:space="preserve">
<g>
	<path fill="#FFFFFF" d="M58.925,117.85L0,58.926L58.925,0l58.924,58.926L58.925,117.85z"/>
	<path fill="#010101" d="M58.925,117.85L0,58.926L58.925,0l58.924,58.926L58.925,117.85z M3.022,58.926l55.903,55.902l55.899-55.902
		L58.925,3.021L3.022,58.926z"/>
	<path id="download-2-icon" fill="#020202" d="M62.551,51.924h3.042l-6.613,6.627l-6.613-6.627h3.04V43.6h7.145v8.324H62.551z
		 M64.452,57.229v2.99H53.505v-2.99h-2.295v5.287h15.538v-5.287H64.452z"/>
	<g>
		<path fill="#010101" d="M55.11,67.029c1.158,0,2.191,0.623,2.728,1.639h1.089c-0.636-1.582-2.162-2.527-3.845-2.527
			c-2.26,0-4.155,1.795-4.155,4.07c0,2.305,1.878,4.043,4.155,4.043c1.795,0,3.053-0.904,3.845-2.459h-1.089
			c-0.537,1.031-1.582,1.568-2.728,1.568c-1.795,0-3.194-1.385-3.194-3.178C51.915,68.4,53.344,67.029,55.11,67.029z"/>
		<polygon fill="#010101" points="65.863,66.338 63.094,72.84 60.364,66.338 59.305,66.338 62.571,74.07 63.658,74.07 
			66.924,66.338 		"/>
	</g>
</g>
</svg>
