<?xml version="1.0" encoding="utf-8"?>
<!-- Generator: Adobe Illustrator 15.1.0, SVG Export Plug-In . SVG Version: 6.00 Build 0)  -->
<!DOCTYPE svg PUBLIC "-//W3C//DTD SVG 1.1//EN" "http://www.w3.org/Graphics/SVG/1.1/DTD/svg11.dtd">
<svg version="1.1" id="Calque_1" xmlns="http://www.w3.org/2000/svg" xmlns:xlink="http://www.w3.org/1999/xlink" x="0px" y="0px"
	 width="117.849px" height="117.85px" viewBox="0 0 117.849 117.85" enable-background="new 0 0 117.849 117.85"
	 xml:space="preserve">
<g>
	<path fill="#FFFFFF" d="M58.925,117.85L0,58.926L58.925,0l58.924,58.926L58.925,117.85z"/>
	<path fill="#010101" d="M58.925,117.85L0,58.926L58.925,0l58.924,58.926L58.925,117.85z M3.022,58.926l55.903,55.9l55.899-55.9
		L58.925,3.022L3.022,58.926z"/>
	<path id="twitter-icon" fill="#020202" d="M77.832,47.229c-1.386,0.617-2.875,1.031-4.442,1.217
		c1.599-0.955,2.824-2.471,3.401-4.279c-1.492,0.885-3.149,1.529-4.913,1.879c-1.411-1.506-3.421-2.445-5.647-2.445
		c-4.996,0-8.666,4.66-7.538,9.498c-6.429-0.322-12.13-3.402-15.946-8.082c-2.029,3.477-1.05,8.029,2.393,10.33
		c-1.268-0.039-2.462-0.389-3.503-0.969c-0.084,3.584,2.485,6.938,6.205,7.684c-1.087,0.297-2.281,0.365-3.494,0.137
		c0.986,3.068,3.842,5.307,7.228,5.371c-3.252,2.547-7.35,3.688-11.455,3.203c3.425,2.193,7.49,3.477,11.859,3.477
		c14.365,0,22.481-12.133,21.992-23.014C75.484,50.143,76.796,48.78,77.832,47.229z"/>
</g>
</svg>
